/* XPM */
static char *d2e71e3972ea444beb01fbdf7677295a4qIu5ygRDWlp3EfM[] = {
/* columns rows colors chars-per-pixel */
"64 64 226 2 ",
"   c None",
".  c #1D1D1D",
"X  c #232323",
"o  c #2C2B2B",
"O  c #393327",
"+  c #353535",
"@  c #363738",
"#  c #3B3B3C",
"$  c #393937",
"%  c #523A08",
"&  c #4A3916",
"*  c #463B24",
"=  c #57400D",
"-  c #745305",
";  c #795706",
":  c #634D16",
">  c #6D561B",
",  c #6E591E",
"<  c #725A1C",
"1  c #674A05",
"2  c #574822",
"3  c #464133",
"4  c #474439",
"5  c #55482E",
"6  c #685524",
"7  c #61502D",
"8  c #7E6A3C",
"9  c #444445",
"0  c #4B4C4D",
"q  c #4A4844",
"w  c #59574B",
"e  c #565652",
"r  c #585751",
"t  c #5A5952",
"y  c #5A5A5A",
"u  c #504F4F",
"i  c #66645B",
"p  c #736956",
"a  c #706144",
"s  c #636363",
"d  c #6B6B6C",
"f  c #696761",
"g  c #7C7569",
"h  c #72716A",
"j  c #737373",
"k  c #7B7B7C",
"l  c #7E7D74",
"z  c #716D63",
"x  c #825D00",
"c  c #815F08",
"v  c #8A6505",
"b  c #8C6909",
"n  c #936B00",
"m  c #9A6E00",
"M  c #906700",
"N  c #9E7201",
"B  c #816A1C",
"V  c #A27500",
"C  c #AA7E00",
"Z  c #A47B00",
"A  c #A87E12",
"S  c #92782E",
"D  c #957E49",
"F  c #937C45",
"G  c #877B59",
"H  c #857442",
"J  c #807D76",
"K  c #AB8102",
"L  c #B98B00",
"P  c #B89213",
"I  c #B39333",
"U  c #DCB81A",
"Y  c #D2A705",
"T  c #E9BB00",
"R  c #D2BA2C",
"E  c #D6B437",
"W  c #F3CF15",
"Q  c #F3D31A",
"!  c #EBC914",
"~  c #E3C626",
"^  c #F7DA24",
"/  c #E8C937",
"(  c #EFD03D",
")  c #FAE12B",
"_  c #998555",
"`  c #96865E",
"'  c #9E8856",
"]  c #AE924B",
"[  c #BB9E46",
"{  c #A48C54",
"}  c #A48F5B",
"|  c #AE965B",
" . c #AD9456",
".. c #B69B5A",
"X. c #A38A4F",
"o. c #87846A",
"O. c #938662",
"+. c #988966",
"@. c #86857D",
"#. c #948D72",
"$. c #948F7A",
"%. c #9C9176",
"&. c #A18D60",
"*. c #A89464",
"=. c #B69E64",
"-. c #A99B76",
";. c #BAA267",
":. c #B9A575",
">. c #AEA07F",
",. c #CEB552",
"<. c #CAB258",
"1. c #CAAD66",
"2. c #C4A867",
"3. c #D1B56D",
"4. c #C1AA74",
"5. c #C9B378",
"6. c #D8BB77",
"7. c #DEC345",
"8. c #E9CA43",
"9. c #EBD44B",
"0. c #F5D746",
"q. c #E7D054",
"w. c #F9E349",
"e. c #F8E459",
"r. c #E3C57D",
"t. c #EADA79",
"y. c #E6D86C",
"u. c #FBE968",
"i. c #FAEA79",
"p. c #858483",
"a. c #8C8C8C",
"s. c #8D8A83",
"d. c #908B81",
"f. c #989387",
"g. c #8F8F90",
"h. c #8F9091",
"j. c #939494",
"k. c #9C9C9D",
"l. c #9B9992",
"z. c #A29F91",
"x. c #A7A385",
"c. c #B5AD89",
"v. c #BAB68E",
"b. c #BAB68E",
"n. c #A7A59D",
"m. c #B3AF9B",
"M. c #BBB491",
"N. c #BDB991",
"B. c #B8B49B",
"V. c #A3A3A3",
"C. c #ABAAA5",
"Z. c #ACACAD",
"A. c #BBB9AD",
"S. c #B6B4A9",
"D. c #B2B2B3",
"F. c #BBBBBA",
"G. c #BAB9B7",
"H. c #B0AFA4",
"J. c #C9B984",
"K. c #C5BA97",
"L. c #D2BD8B",
"P. c #C1BFA7",
"I. c #DBC288",
"U. c #D5C69C",
"Y. c #CBC69D",
"T. c #E7CA86",
"R. c #EED18A",
"E. c #F2D48E",
"W. c #E9D798",
"Q. c #F5D995",
"!. c #FBDC93",
"~. c #F3D99A",
"^. c #E2CA93",
"/. c #FBEE8A",
"(. c #FBE597",
"). c #FCF09B",
"_. c #FDF08C",
"`. c #CAC5A6",
"'. c #CBC8A7",
"]. c #DACBA4",
"[. c #D8C9A5",
"{. c #DDD3A5",
"}. c #DED5A9",
"|. c #D5D2B9",
" X c #CFCCB5",
".X c #E6D6AA",
"XX c #E1DDB9",
"oX c #E9D9B2",
"OX c #F1DFB7",
"+X c #E1CFA6",
"@X c #E8E2AF",
"#X c #FCE1A2",
"$X c #FCE4AD",
"%X c #FAEFA2",
"&X c #FCF3AD",
"*X c #FCF2A3",
"=X c #ECE6B5",
"-X c #EDE8B5",
";X c #E6E2BB",
":X c #E9E4BD",
">X c #F2ECB5",
",X c #F8E8B8",
"<X c #F9F3BD",
"1X c #F9F2B8",
"2X c #C9C9C4",
"3X c #DFD9CA",
"4X c #E6DECC",
"5X c #EBE3CB",
"6X c #EDE7C3",
"7X c #FDEECB",
"8X c #FCEBC5",
"9X c #FFFBC3",
"0X c #FFF0C8",
"qX c #ECE4D4",
"wX c #EFE8D8",
"eX c #F3ECDB",
"rX c #F1E9D7",
"tX c #FDF1D2",
"yX c #FCF3DF",
"uX c #F3EEE3",
"iX c #FDF5E3",
"pX c #FFF9E5",
"aX c #FFF9EA",
"sX c #FAF4E6",
"dX c #FFFEFD",
"fX c #FBFAF3",
/* pixels */
"                                                                                                                                ",
"                                                                                                                                ",
"                                                                                                                                ",
"                                                                                                                                ",
"                                                                                                                                ",
"                                                                                                                                ",
"                                                                                                                                ",
"                                                                                                                                ",
"                                                                                                                                ",
"                                                                                                                                ",
"                                                                                                                                ",
"                                                                                                                                ",
"                                                                                                                                ",
"                                                                                                                                ",
"                                                                                                                                ",
"                                                                                                                                ",
"                                                                                                                                ",
"                                                                                                                                ",
"                                                                                                                                ",
"                                                                                                                                ",
"                                                                                                                                ",
"                                                                                                                                ",
"                                                                                                                                ",
"                                                                                                                                ",
"                                                                                                                                ",
"                                                                                                                                ",
"                                                    +.` O.O.O.O.O.O.O.O.O.` O.O.` O.O.O.O.O.O.O.G + . X X X X . X               ",
"                                                    ` U.@X@X@X@X=X@X@X@XoX=X@X@X@XoX=XXX@X@X@X@X{.w + @ @ @ @ @ + X             ",
"                                        tX          -.|.oX}.}.}.}.}.{.:X:X}.}.}.+X}.5XqX}.}.{.=X=Xr 2 < < > 5 j 0 @ X           ",
"                                      $XtX          qXqX[.>.*.|  .|  .[.3X&._ _ { D M.K._ _ } ].=Xe < V N V v G p.0 @ X         ",
"                                !.!.!.$XtX!.!.!.!.!.aXuX{.>.} ] ] ] ] U.qX' _ F D F c.M.F D ' {.=Xr B Z n C M v $.k $ X         ",
"                                !.!.!.#XtX!.!.!.!.!.aXuX].:.=.........'.qX| X.{ X.X.K.K.{ { | .X=Xt < V N N N ; s.k $ X         ",
"                                !.!.!.$X7X$X,X!.!.!.iXsXL.:.;.2.1.2.2.+X5X=.| ..4.4.P.K...=.| J.OXr B C N m n v s.k @ X         ",
"                                  !.!.#X7XpXaX!.!.!.iXsX].5.4.1.1.1.1..XrX4.=.=.L.4X].[...;.{ G =Xt < V V N N ; s.k @ X         ",
"                                  $X#X$X8XiXaX!.!.!.iXsXW.L.5.3.3.3.3..XrX3.1.4.[.4X+X].4.5.*.m.=Xr B C N n n v s.k @ X         ",
"                                  dX7X#XtXaXaX!.!.!.iXsX~.I.6.6.6.6.6.@XeXL.5.3.+XrXqX+XI.qXp K.-Xr , V N N N ; $.k @ X         ",
"                                  dX7X#XpXfXpX!.!.!.yXyX~.^.r.r.r.r.T.OXuXI.r.6..XiXdX.X^.rXp B.-Xr < V N V m ; d.k @ X         ",
"                                  dX7X#XiXdXpX!.!.!.yXsX~.R.T.R.R.T.T.OXyXT.T.T.oXiXdXOX.XfXp B.-Xr B V n C n v d.k $ X         ",
"                                  dX7X#XpXfXiX!.!.!.yXyXQ.Q.E.(.E.E.E.8XsX~.R.R.OXaXdX,X$XfXl.A.=Xr > m N m v 8 a.y o           ",
"                                  dX7X(.tXfXpX!.!.(.pXiX!.(.!.(.!.!.!.8XsX!.!.!.<XaXaX,X$XdX2X|.,Xt * % % = 7 @.y o             ",
"                                + p.#.` O.f.f.` O.` f.f.` ` ` ` ` ` ` #.f.O.` O.#.f.+.` #.l.$.#.o.$ o X X o o + o               ",
"                            #.N.N.v.N.v.N.N.v.v.b.b.b.c.c.N.N.N.K.v.v.v.t o @ -.N.M.x.c.c.p o + + X                             ",
"                            B.:XXX|.;XXXXXXX:X9X<X9X9XY.x.;XXXXXXXXXXX:Xd @ 9 x.B.'.@.n.x.y 9 * $ X                             ",
"                            j.j.d @.k.C.C.n.A.|.m.z. Xl.j k.k.C.l.j j D.d * & & p C.y @.i s * y $ X                             ",
"                            0 a.e h t 5.W.t.y.G.y o k.a.q B P ,.,.J s g.4 b v x ;.j.o O 7 s f u o .                             ",
"                            9 V.p.u < U q.)./.F.j e V.a.4 P ! Y ( K.g.a.3 b M N X.D.G - G s d 9 X                               ",
"                            9 D.k.0 , U u._.>XF.d # k.h.4 R W ( 0.`.D.g.3 K L N v S C.%.l 5 g 9 o                               ",
"                            9 D.k.0 , U q.u.>XF.y . j.j.4 R ^ 7.8.`.D.g.3 N C N N n : O : 1 g 9 X                               ",
"                            9 G.k.0 , ~ ~ ^ q.c.$.z f.i 6 / ) ~ 8.`.D.p.* b n N N V n x V ; g 9 o                               ",
"                            9 k.k.0 , ~ 9.Q Q R [ [ I I 3./.w.9.e.'.Z.s q N C N N N N V K ; g q o                               ",
"                              d Z.0 6 U ~ ) Q Q u.).i.i.*X&X/./ e.`.D.a.* b n V N N V m c 1 g 9 o                               ",
"                            9 V.k.0 , P e.) ^ Q ^ i.>Xi./.&X&X_.e.`.D.g.4 A L m N N V Z L - g q X                               ",
"                            9 D.k.0 , K 7.^ ) Q W w.*X).u.*X&Xt.i.`.D.g.3 N Z V N N N V V 1 g 9 o                               ",
"                            9 D.k.b.I.8 S ! ^ ^ Y ! w.)._.i.*XW.>XP.Z.g.3 v n V V V V N x % g q o                               ",
"                            4 D.j P.:X'.o.,.0.7.I E w.i.1X*X1X;XH.d k.j.* A x x C V C V K - g 9 X                               ",
"                            d D.f y j.'.>X1X<X<X<X>X>X8X<X9X;XC.j 0 j.C.w 2 * * 2 > 2 6 2 2 r 9 + .                             ",
"                            k.Z.j.a.k.C.S.A.A.A.A.d.r C.A.A.H.V.j.g.k.F.d @ # # # # # # # # # # @ X                             ",
"                            V.F.F.F.k.j d d d d d e X s d d d k D.F.D.2Xd + o + + o + o o + @ # @ X                             ",
"                            u s s s 9 X .                     X y s s s @ X .             . X o o .                             ",
"                                                                                                                                ",
"                                                                                                                                ",
"                                                                                                                                ",
"                                                                                                                                ",
"                                                                                                                                "
};
