/* XPM */
static char *eeec66de14f04af2c3c2eb3180616ec10QD06S3Hl4mdJqB1[] = {
/* columns rows colors chars-per-pixel */
"64 64 46 1 ",
"  c None",
". c gray11",
"X c #25231F",
"o c #362F24",
"O c #3E3526",
"+ c #3E3129",
"@ c #511A00",
"# c #772800",
"$ c #7C2E04",
"% c #46372B",
"& c #7A5900",
"* c #50422B",
"= c #54422F",
"- c #58482E",
"; c #5B4731",
": c #6A5235",
"> c #270053",
", c #624C41",
"< c #795E45",
"1 c #8A6E5F",
"2 c #8F715F",
"3 c #97785F",
"4 c #E38900",
"5 c #FFA914",
"6 c #A5825F",
"7 c #FAAF4B",
"8 c #FFB646",
"9 c #FFB747",
"0 c #FAB04C",
"q c #FBB14D",
"w c #FFB849",
"e c #FFB84A",
"r c #FBB450",
"t c #FBB550",
"y c #FCAB67",
"u c #FBA36A",
"i c #FBA46A",
"p c #FFD096",
"a c #FFD19E",
"s c #FFD2A3",
"d c #FFD3A6",
"f c #FFE9BF",
"g c #DCC2C1",
"h c #D7C2CE",
"j c #ECECEC",
"k c #FFF6E1",
/* pixels */
"                                                                ",
"                                                                ",
"                                                                ",
"                                                                ",
"                                                                ",
"                                                                ",
"                                                                ",
"                                                                ",
"                       ..     ...                               ",
"                       .8.   .88. ..                            ",
"                       .8....81,..8.                            ",
"                       .18..811,.81...                          ",
"                       .18..811,+,,.8.                          ",
"                       .18..811,+,+81.                          ",
"                       .18..811,++,,+..                         ",
"                       .1188111,++,+88.                         ",
"                       .177k,11,,++,,,......                    ",
"                       .1777,,,,,++,,..hk+7k.                   ",
"                       .+,,,,++++++...1k+>kkk.                  ",
"                        .@uu&@ju=OO=X10,+7>k7.                  ",
"               ....     .#uuu$oy5555*30,,+77+k.                 ",
"              .11,+..   .dddda555555550,7,++,k.                 ",
"             .,,++1h.   .duudp555kk555:%77,,k1..                ",
"             .11+1...  .1...o555kkkk555=+,,71..+.               ",
"             .++.1.48...8,,,<55kk-fkk55;++71.....               ",
"             .++.4.h8++8.888e55kkttkk55;++1...,,.               ",
"              ..4.h8++888...o555kkkk555311...1h,.               ",
"                ...++4444.+126555kk555*X..444.h,.               ",
"                 ..,+444.k7..o55555555g.44444.1h.               ",
"                  ..,....77.88ot5555*oX ..... ..                ",
"                    ..   ..8,,8XoOeeX..                         ",
"                          .811,888++++.                         ",
"                          .,111+++++++.                         ",
"                          ..811888+++..                         ",
"                          .++hhh11++++.                         ",
"                          .+h,,,h++++++..                       ",
"                          ..,7kk,.++++.,,.                      ",
"                         .,.,>kk,.....,,,,.                     ",
"                        .,..+777+.,.8,11,,,.                    ",
"                       .,.4..+++..,+.811,,,,.                   ",
"                     ..,.44.8...8.++..811,,,8.                  ",
"                     ...888.8,,,8.+.44.81118.                   ",
"                    .h11884.88,88..488h.888.                    ",
"                     .h1++.8,,88..444h11...                     ",
"                     .h1++.8,,,8. .++111,..                     ",
"                      ...4.88,88.  .++,..88.                    ",
"                       .84.88888.   .+.444..                    ",
"                      ...4.8...8.    .44..hh.                   ",
"                      .hh....  ..    ...hh11.                   ",
"                      .11,,,.         .h,11.                    ",
"                       .1,,,.         .,,11.                    ",
"                       .+h,.           .+,++.                   ",
"                       .,++.            .+,11.                  ",
"                      .h,,h,.           .,,hh1.                 ",
"                     .hh,,,,.           .,,111.                 ",
"                     .++++++.           .+++++.                 ",
"                     ........            ......                 ",
"                                                                ",
"                                                                ",
"                                                                ",
"                                                                ",
"                                                                ",
"                                                                ",
"                                                                "
};
