/* XPM */
static char *_213fe3c81b14fefb019abec9821830c8co4Y6omx8EhgXzo[] = {
/* columns rows colors chars-per-pixel */
"64 64 129 2 ",
"   c None",
".  c #4D2712",
"X  c #4E2812",
"o  c #522B14",
"O  c #532F18",
"+  c #5A3117",
"@  c #56321A",
"#  c #5A351D",
"$  c #5E391E",
"%  c #603A1F",
"&  c #5B3720",
"*  c #5E3A21",
"=  c #623D23",
"-  c #644126",
";  c #664529",
":  c #69462A",
">  c #67482B",
",  c #6A4A2D",
"<  c #6C4E31",
"1  c #644F3C",
"2  c #704E31",
"3  c #6E5234",
"4  c #66523F",
"5  c #6C563E",
"6  c #715537",
"7  c #765837",
"8  c #735738",
"9  c #755A3A",
"0  c #795E3E",
"q  c #7A603F",
"w  c #675240",
"e  c #695642",
"r  c #6C5A46",
"t  c #6D5C48",
"y  c #715C45",
"u  c #7A5F40",
"i  c #715E48",
"p  c #7D6241",
"a  c #74624C",
"s  c #756551",
"d  c #786751",
"f  c #7B6A55",
"g  c #7F6E59",
"h  c #7F6F5A",
"j  c #7D6D5A",
"k  c #7F705B",
"l  c #7F7262",
"z  c #806544",
"x  c #806445",
"c  c #806545",
"v  c #816645",
"b  c #806546",
"n  c #826746",
"m  c #836847",
"M  c #826947",
"N  c #836947",
"B  c #826848",
"V  c #836848",
"C  c #83694A",
"Z  c #84694A",
"A  c #846A4A",
"S  c #866B4A",
"D  c #866B4B",
"F  c #876B4B",
"G  c #876C4B",
"H  c #846B4D",
"J  c #876E4D",
"K  c #856C4E",
"L  c #866C4E",
"P  c #866D4F",
"I  c #876E4F",
"U  c #876F4F",
"Y  c #846B4A",
"T  c #886C4C",
"R  c #886E4D",
"E  c #886E4E",
"W  c #886F4E",
"Q  c #896F4F",
"!  c #8A714E",
"~  c #8A704F",
"^  c #8A714F",
"/  c #8B714F",
"(  c #866E50",
")  c #876E50",
"_  c #886F51",
"`  c #8B7353",
"'  c #8D7453",
"]  c #8E7653",
"[  c #8A7254",
"{  c #8B7254",
"}  c #8B7455",
"|  c #8C7455",
" . c #8D7455",
".. c #8D7556",
"X. c #8E7556",
"o. c #8E7656",
"O. c #81705B",
"+. c #81715B",
"@. c #81715C",
"#. c #81715D",
"$. c #907756",
"%. c #907857",
"&. c #917858",
"*. c #917958",
"=. c #937B5C",
"-. c #937C5C",
";. c #947C5C",
":. c #967D5F",
">. c #947E5E",
",. c #957E5E",
"<. c #957E5F",
"1. c #857561",
"2. c #867661",
"3. c #847562",
"4. c #867966",
"5. c #897B67",
"6. c #8E7F6A",
"7. c #8C7F6C",
"8. c #977F61",
"9. c #8E806C",
"0. c #988162",
"q. c #998263",
"w. c #9A8364",
"e. c #9B8466",
"r. c #9B8566",
"t. c #9B8567",
"y. c #928371",
"u. c #938472",
"i. c #948675",
/* pixels */
"                                                                                                                                ",
"                                                                                                                                ",
"                                                                                                                                ",
"                                                                                                                                ",
"                                                                                                                                ",
"                                                                                                                                ",
"                                                  , 2 , 2 2 % 2 2 2 2 2                                                         ",
"                                          : 2 : = / / / T T + G G K Z T $ - - -                                                 ",
"                                      2 : $.%.&.% / ! ! G G + G T Z G Z % 0 9 0 % =                                             ",
"                                  - = { / $.$.%.% q.w.0.;.*.% 0.,.,.,.$.+ 9 0 0 0 9 $ =                                         ",
"                                : z % / e.e.e.e.% 7 7 0 7 n % 7 0 0 0 q % $.$.] ..8 = 2 *                                       ",
"                              , ! G % q.7 T z z % p p 9 9 z % 0 0 z q z = - : v u  .= 2 3 *                                     ",
"                            : Z G :.% 7 7 T z z = p p p 9 z - 0 0 q p p : : S q p u - _ 8 3 #                                   ",
"                            : Z ;.0 % 7 T z z z : p p p q z : 0 z q p p : n q q u p - p L 6 #                                   ",
"                          - u { 0 9 = 8 T z n p - q p p p z : 0 q p p p : z q q u u > u 0 K 6 #                                 ",
"                          :  .9 9 0 - Z z z n n , p p p q p : p p p p p : z q q p u < 0 q q L #                                 ",
"                        ; u { 9 9 9 : p z z z p , 0 p 0 0 n : q z p p q , p p q p q < q q 0 ( < #                               ",
"                        = _ 9 9 9 0 : z x z z z , u 0 z 0 n : z p p p z , p q q p 0 3 q q q 0 ` @                               ",
"                        ; ) 8 9 9 9 2 z x x z z , p u p u z : n p v z q , u p p 0 p 3 q q 0 0 ` @                               ",
"                        $ 8 9 9 9 9 , z p x - p , u u u u n : m v q q z , p - p p u < q q 0 0 0 o                               ",
"                        # $ $ $ % = = = = = i.: , u u u p M : M q p p p , = u.= * * = $ $ # # # o                               ",
"                        O f f O.O.O.2.#.2.2.( 6.- p u u 0 p : M p p p p - u.f #.3.k g g g g f f o                               ",
"                        + y 9 a i d f f f f j f 5.- u 0 u p : C q z p - y.d f f d i a i y a r y o                               ",
"                        + y y a a a f f f f j f o u 0 u p p : B z z p p o f d d d a i a a a y r o                               ",
"                        + O o O + + o o O O f o 6 0 0 0 u p > C q z p p , + N + o o o o o o o o o                               ",
"                        O - - - - : % , , , o 2 2 0 0 0 u p > C z q p p , , o : > > , , , > > > o                               ",
"                        O 7 8 8 8 8 = 9 u p < 2 < u 0 u u p > Y q p p p , q , q p 0 3 9 8 8 8 8 o                               ",
"                        O 8 8 7 9 8 ; u u u u < < 0 u 0 u p ; K q p p p , q q q q q 3 8 8 8 8 8 o                               ",
"                        O 8 8 7 8 9 , u 0 u p , < 0 0 9 0 p ; H q p q p , q q q 0 q 3 8 8 8 8 6 o                               ",
"                        O 8 8 8 8 8 : z 0 9 9 , < 0 0 0 0 p ; H p q p q , q q q 0 0 < 3 8 8 6 6 o                               ",
"                        o 8 8 8 8 8 , u 9 0 9 0 < 9 u u 0 p ; H q p p p , p 0 0 0 0 < 8 6 6 6 6 o                               ",
"                        o 8 8 8 8 8 , u 9 0 9 9 < 9 9 9 9 p ; ( q q q q 3 q 0 0 0 0 < 5 8 6 6 6 o                               ",
"                        O 6 8 8 6 8 > u 0 8 0 8 < 8 6 0 # $ $ $ = q q q 6 q 0 0 0 9 < 6 6 6 6 6 o                               ",
"                        o 6 6 6 6 8 > p 8 8 7 0 < 7 0 $ 9.9.9.9.5.$ q 0 2 q 8 0 u 9 < 6 3 3 3 3 o                               ",
"                        o 6 6 6 8 6 3 q 0 6 8 8 < 0 9 $ a a a s a $ 0 0 3 p 0 0 9 9 > 3 3 3 3 6 o                               ",
"                        o 6 6 6 6 8 , p 6 6 8 8 , 8 9 # a a o a a $ 8 0 3 q 8 7 9 9 > 6 3 6 3 3 o                               ",
"                        o 8 3 3 8 8 , p 6 6 8 8 3 0 8 o a r o r y o 8 0 , p 8 0 9 9 > 3 < 3 3 3 X                               ",
"                        X 8 8 8 6 8 , p 6 8 6 6 , 8 8 o 5 5 8 5 5 o 8 8 , p 0 8 9 9 > < 3 3 3 3 o                               ",
"                        X 8 8 6 6 6 , p 3 8 * 6 3 8 8 : X X X X X , 8 8 < 0 = 8 9 9 ; 3 < 3 3 3 X                               ",
"                        X + O # # & & & * * 9.* , 8 9 8 > > # > : 8 8 8 < = 9.* & & & & # @ @ @ .                               ",
"                        X f d g j f 1.#.3.3.f 5.* 8 8 8 9 8 = q 8 9 8 9 * 9.s k @.f f f f g a f X                               ",
"                        X 5 r r i i s a a d d d 5.* 6 8 8 9 - 8 8 8 9 = 9.a a s a i t i r a 5 5 X                               ",
"                        X e 5 i i i a s a a d f X 6 3 8 8 8 ; 6 8 8 6 5 X s a s a i r i r r 5 5 X                               ",
"                        X X X o o X o X o o a o - 8 8 6 8 8 - 5 8 8 8 6 ; X t X X X X X X X X . X                               ",
"                        X % % - - ; # > , , o > - 8 8 6 6 6 = 6 3 6 6 6 - > X > > ; - - - = - - .                               ",
"                        X 3 3 < 3 3 # 5 3 3 > 3 * 6 3 8 6 6 * 6 3 3 3 6 - 9 > 9 6 0 * < < < > 3 .                               ",
"                        X 3 < 3 < 3 * 3 3 8 5 8 - 8 6 8 6 6 & 4 3 3 3 3 - 9 9 9 0 9 * < < > < 1 .                               ",
"                        X 3 3 3 3 3 - 3 3 3 3 3 * 3 6 5 6 6 O e 3 6 3 3 * 9 9 9 6 0 * 3 < < < > .                               ",
"                        X @ # # * * * * & & & & & @ @ O O . . O O O O & & & @ & @ @ @ @ O O . . .                               ",
"                        X a a a s s s s s s s f s s f f l l . l l j j f s f s s s s s s s s s s .                               ",
"                        . l 4.4.l 4.4.l 4.4.4.7.7.7.7.7.i.i.. 7.i.7.7.7.7.4.4.4.4.4.3.4.3.3.3.3..                               ",
"                        . w w w 4 e e e w t t e t t t t t s . s t t t t t t r e e e e 1 1 4 1 1 .                               ",
"                        X 4 4 4 4 4 4 4 e r e t t e t t t s . s t t t t t t e t e e e w 1 1 1 1 .                               ",
"                        X 4 4 4 w e e e e e r e e t e t t s . s t t t t t t e r r w w w e 1 1 1 .                               ",
"                        . 4 1 1 r e e e e e t r t t t t t s . s t t t t t t r r e e e e e e 1 1 .                               ",
"                        . . . . . . . . . . . o . . . . . . . . X X X X . . . . . . . . . . . . .                               ",
"                                                                                                                                ",
"                                                                                                                                ",
"                                                                                                                                ",
"                                                                                                                                ",
"                                                                                                                                ",
"                                                                                                                                ",
"                                                                                                                                ",
"                                                                                                                                "
};
