/* XPM */
static char *_1b4a54d037b47ab91b4789163e37f3arJVVkBofIwGf3shB[] = {
/* columns rows colors chars-per-pixel */
"64 64 17 1 ",
"  c None",
". c gray11",
"X c #3E293A",
"o c #7A5900",
"O c #270053",
"+ c #4D0051",
"@ c #730077",
"# c #62415C",
"$ c #FBA36A",
"% c #8A5F82",
"& c #9F1DC6",
"* c #D446FF",
"= c #FFD3A6",
"- c #FFA9FE",
"; c #D7C2CE",
": c #E7D2FF",
"> c #ECECEC",
/* pixels */
"                                                                ",
"                                                                ",
"                                                                ",
"                                                                ",
"                                                                ",
"                                                                ",
"                                                                ",
"                                                                ",
"                        ..     ...                              ",
"                        .*.   .**. ..                           ",
"                        .*....*%#..*.                           ",
"                        .%*..*%%#.*%...                         ",
"                        .%*..*%%#X##.*.                         ",
"                        .%*..*%%#X#X*%.                         ",
"                        .%*..*%%#XX##X..                        ",
"                        .%%**%%%#XX#X**.                        ",
"                        .%--:#%%##XX###.                        ",
"                        .%---#####XX##.                         ",
"                        .X####XXXXXX...                         ",
"                         .+$$o+>$X..X.                          ",
"                         .@$$$@.$...X......                     ",
"                         .======.**.#.;:X-:.                    ",
"                         .=$$==..##..%:XO:::.                   ",
"                        .%.....#.##.%-#X-O:-.                   ",
"                       ..*######*...%-##X--X:.                  ",
"                      .%X.******....%-#-#XX#:.                  ",
"                     .%XX.......###.%XX--##:%.                  ",
"                     .%XX.#.**.####.%XXX##-%....                ",
"                     .%X..X%%%%XX%-.%XXXX-%...##.               ",
"                     .%&.:-....-:X--.%XXX%.&.%;#.               ",
"                      .&.--.**.--X....%%%.&&X.;#.               ",
"                      .X...*##*...**.....&XXX.%;.               ",
"                     .XXXX.*%%#***XXXX. ..XXX&..                ",
"                    .**XXX.#%%%XXXXXXX.  .&&&*.                 ",
"                 .....&*X...*%%***XXX..   .***.                 ",
"                .;.&.;.&. .XX;;;%%XXXX.   ....;.                ",
"               .X%..&.;. ..X;###;XXXXXX....;;;..                ",
"               .#X%%.&. .#..#-::#.XXXX.###...-:X.               ",
"               .%XX.X. .#.&.#O::#.....####.##--X.               ",
"                .#%XX .#.&&.X---X...*#%%%#.XXXX%.               ",
"                 ... .#.&&&..XXX...X.**%%%.X%#%.                ",
"                    ...***&.*...*..X...**%%....                 ",
"                   .;%%**&&.*###*.X.&&*..***.                   ",
"                    .;%XXX&.**#**..&**;X....                    ",
"                    .;%XXXX.*#*#*.&&&;%%X..                     ",
"                     ...&&X.*###*..XX%%%#.*.                    ",
"                      .*&&&.**#**. .XX#..&..                    ",
"                     ...&&&.*****.  .X.&..;;.                   ",
"                     .;;....*...*.   .&&.;%%.                   ",
"                     .%%###..   ..    ..;%%%.                   ",
"                      .%###.          .;#%%.                    ",
"                       .;;#.           .X#XX.                   ",
"                       .XXX.            .X#%%.                  ",
"                      .;##;#.           .##;;%.                 ",
"                     .;;####.           .##%%%.                 ",
"                     .XXXXXX.           .XXXXX.                 ",
"                     ........            ......                 ",
"                                                                ",
"                                                                ",
"                                                                ",
"                                                                ",
"                                                                ",
"                                                                ",
"                                                                "
};
