/* XPM */
static char *b084ca63351b4d38aa747ecbff4ccc20JABy8vx9Bd4hXgVa[] = {
/* columns rows colors chars-per-pixel */
"64 64 62 1 ",
"  c #A8EE79",
". c #ABEF79",
"X c #90E478",
"o c #5ED076",
"O c #8AE278",
"+ c #A9EE79",
"@ c #A7ED79",
"# c #73D877",
"$ c #69D477",
"% c #A2EC79",
"& c #AAEF79",
"* c #95E678",
"= c #5FD076",
"- c #84DF78",
"; c #A9EF79",
": c #9CE979",
"> c #9AE878",
", c #A7EE79",
"< c #8EE478",
"1 c #A5ED79",
"2 c #9FEA79",
"3 c #85E078",
"4 c #97E778",
"5 c #A4EC79",
"6 c #91E478",
"7 c #89E178",
"8 c #9BE979",
"9 c #65D377",
"0 c #56CD76",
"q c #6ED677",
"w c #A0EB79",
"e c #6FD777",
"r c #96E778",
"t c #7EDD77",
"y c #9EEA79",
"u c #92E578",
"i c #68D477",
"p c #63D277",
"a c #81DE78",
"s c #99E878",
"d c #78DA77",
"f c #57CD76",
"g c #71D877",
"h c #A3EC79",
"j c #7CDC77",
"k c #77DA77",
"l c #96E678",
"z c #5CCF76",
"x c #59CE76",
"c c #60D176",
"v c #7FDD78",
"b c #93E578",
"n c #74D977",
"m c #8DE378",
"M c #A1EB79",
"N c #8BE278",
"B c #67D377",
"V c #54CC76",
"C c #79DB77",
"Z c #7BDC77",
"A c #98E878",
"S c white",
/* pixels */
"    .XoO.         +@#$%&         .*=-&  &%$#@+    +@#$%&        ",
"    ;:->;          ,<O1+         ;234+  +1O<,      ,<O1+        ",
"      ;+            ++             ;+     ++        ++          ",
"                                                                ",
"                                                              ;.",
"                                                              :X",
"                                                             ;-o",
"                                                             +>O",
"&+                                                            ;.",
"%1                                                              ",
"$O+                                                             ",
"#<+                                                             ",
"@,                                                              ",
"+                                                               ",
"                                                                ",
"                                                                ",
"                                                                ",
"                                                                ",
"+                                                              +",
"@,                                                            ,@",
"#<+                                                          +<#",
"$O+                                                          +O$",
"%1                                                            1%",
"&+                              &.&                           +&",
"                              +56761+                           ",
"                              .890qw&                           ",
"                              .>=er1+                           ",
"                        +&.;  &wt6.                             ",
"                        12y%    ,,                              ",
"                       &uipa,+  +                               ",
"                       &sdfg@+                                  ",
"                        &h#j,+      +                           ",
"                        + yw                                    ",
".;                        &&     &2ak31+                      ;.",
"*2                          +++  .lzxdh&                      2*",
"=3;                        ,@@,  .rcvh,                      ;3=",
"-4+                       ;bnnm  +MN8.                       +4-",
"&+                        &XBVC + +&+                         +&",
"                            >BZ +                               ",
"                           &@uA                                 ",
"&+                           &&                               +&",
"%1                                                            1%",
"$O+                                                          +O$",
"#<+                                                          +<#",
"@,                                                            ,@",
"+                                                              +",
"                                                                ",
"                                                                ",
"                                                                ",
"                                                                ",
"+                                                              +",
"@,                                                            ,@",
"#<+                                                          +<#",
"$O+                                                          +O$",
"%1                                                            1%",
"&+                                                            +&",
"                                                                ",
"                                                                ",
"                                                                ",
"                                                                ",
"                                                                ",
"      ;+            ++     +;             ++            +;      ",
"    ;:->;          ,<O1+  +432;         +1O<,          ;>-:;    ",
"    .XoO.         +@#$%&  &-=*.         &%$#@+         .OoX.    "
};
