/* XPM */
static char *_a2895aae5d7451f8f71587cccb3180dAN1wrO4WhYw23IZA[] = {
/* columns rows colors chars-per-pixel */
"64 64 159 2 ",
"   c #5E94CF",
".  c #5F96D0",
"X  c #5F98D2",
"o  c #6096CF",
"O  c #6197D0",
"+  c #629BD2",
"@  c #66A1D5",
"#  c #6AA4D4",
"$  c #6EABD6",
"%  c #66A5D9",
"&  c #68A6D9",
"*  c #66A8DA",
"=  c #6BABDB",
"-  c #71A5D5",
";  c #72AED5",
":  c #72AED9",
">  c #6EB1DE",
",  c #74B0D6",
"<  c #79B6D6",
"1  c #7CBAD7",
"2  c #73B4DB",
"3  c #79B4D9",
"4  c #76B9DB",
"5  c #7CBCD9",
"6  c #6EB4E1",
"7  c #70B6E1",
"8  c #74BCE4",
"9  c #7ABFE3",
"0  c #7EC0DB",
"q  c #76C0E7",
"w  c #7BC3E3",
"e  c #7EC9E5",
"r  c #76C3E9",
"t  c #78C5EA",
"y  c #7CCBEC",
"u  c #7FD0EE",
"i  c #7CCFF0",
"p  c #7ED0F0",
"a  c #80BFD7",
"s  c #81BEDB",
"d  c #89B9DD",
"f  c #8CBBE2",
"g  c #82C3DB",
"h  c #89C5DC",
"j  c #83C9DF",
"k  c #8ACEDC",
"l  c #8ED3DE",
"z  c #91D6DE",
"x  c #94D9DF",
"c  c #80C7E2",
"v  c #8AC5E3",
"b  c #83CCE4",
"n  c #8BC9E3",
"m  c #83C6EB",
"M  c #81CEEC",
"N  c #8CCAEB",
"B  c #95C4E1",
"V  c #86D2E6",
"C  c #8AD5E5",
"Z  c #8DD9E6",
"A  c #84D3EC",
"S  c #89D5EB",
"D  c #87D8ED",
"F  c #8CDBEA",
"G  c #90D7E1",
"H  c #9ED6E4",
"J  c #93DCE2",
"K  c #99DAE1",
"L  c #94D2EB",
"P  c #93DEED",
"I  c #84CFF0",
"U  c #94D7F1",
"Y  c #9BD7F0",
"T  c #95D8F3",
"R  c #9DDBF2",
"E  c #A9D5ED",
"W  c #ADDCED",
"Q  c #B1DAEE",
"!  c #A0DFF4",
"~  c #8FE0EB",
"^  c #95E1E6",
"/  c #9AE5E4",
"(  c #9EEAE5",
")  c #94E3EA",
"_  c #9AE6E9",
"`  c #97E8E9",
"'  c #9CEAE9",
"]  c #9EEDE9",
"[  c #9FEFEA",
"{  c #98E0F0",
"}  c #9CE1F1",
"|  c #9CE0F3",
" . c #ACE7E7",
".. c #A3EDE3",
"X. c #A5EFE2",
"o. c #A7EBE6",
"O. c #A2ECE4",
"+. c #A9EDE7",
"@. c #A4E2EA",
"#. c #A5E2EB",
"$. c #A1EAEB",
"%. c #A1EDE9",
"&. c #A7E9EF",
"*. c #A9EAEF",
"=. c #B3E6EC",
"-. c #B3ECEB",
";. c #A5F2E6",
":. c #ABF7E5",
">. c #A9F6E6",
",. c #A8F7E6",
"<. c #ACF9E6",
"1. c #ACFAE7",
"2. c #AFFBE6",
"3. c #AFFCE7",
"4. c #A4F2E8",
"5. c #A5F3E8",
"6. c #A5F4E8",
"7. c #ABF3EA",
"8. c #ACF3EA",
"9. c #A9F7E8",
"0. c #ABFAE8",
"q. c #B1FFE7",
"w. c #B3F3EE",
"e. c #B7F4EF",
"r. c #BAF7EF",
"t. c #B4F8EB",
"y. c #B3FEE8",
"u. c #BDFAEF",
"i. c #A2E3F2",
"p. c #A9E3F5",
"a. c #AAECF0",
"s. c #ABECF0",
"d. c #B2E5F5",
"f. c #B4EAF6",
"g. c #B7EAF7",
"h. c #BFECF1",
"j. c #B3E6F9",
"k. c #B7EDF8",
"l. c #B9EBF8",
"z. c #B6F2F0",
"x. c #B6F3F0",
"c. c #B8F5F0",
"v. c #BCFAF0",
"b. c #C0FCEE",
"n. c #C6EBF5",
"m. c #C6ECF5",
"M. c #C8EEF6",
"N. c #C5EEFA",
"B. c #C2F1F4",
"V. c #C3F4F5",
"C. c #C4F5F6",
"Z. c #C9F7F7",
"A. c #C2F8F3",
"S. c #C9F9F5",
"D. c #C3F5F8",
"F. c #CAF3F9",
"G. c #CAF3FA",
"H. c #CBF3FA",
"J. c #D0F8F8",
/* pixels */
"O z 3.<.<.1._ A 6.q.` y y y 8 + r ' ' t + O % A 4.F 8 + r i y u 6.<.` A ;.<.' y y =   @ t ` ' r + 7 i y y ` <.;.A / <.<.<.q.l O ",
"7 ^ 6.F F c 3 * 1 b e > ^ ` #.W ' ^ ^ ` G z J ` ) ) #.W ( ] n > V j , = 1 V M = r q w z / ^ ) ( Q #.' P > e V < = 2 j F P ;./ 7 ",
"F ` C 7 6 = % $ 1 L L g / ' *.g.' w N b.y.3.>.` 9 S s.l.$.' G g R n 2 % % 6 3 5 Y T ' <.] e e $.l.&.( / g L L < $ & = 7 6 V ' F ",
"6.~ 9 @ # w A S / m.h./ M y A S A > f F.8.<._ 9 % 7 y y y y S X.n.-.^ A A 2 0 8.F.x.>.;.y = = y y y y u / h.m.O.S A q & @ 9 ) 4.",
"A _ ) e / B.V.( ; - # $ t ` e.F.8.S t I A ] x % 8 y y y y i 9 # - # 0 7.F.w.^ A A M ) O.$ 6 t y y y y t $ - # ; ( V.B.( y ^ _ A ",
"* W W 2 D | L 1 8 j z l y w v R F A D ) = e 0   * q i y t F ^ x l w 8 g Y R D y ` 5 8 V + @ 7 y i t D / G z j 7 1 L } D > W W * ",
"* W W = 6 M e * 7 C 4.` 9 * 4 S 7 r D ^ g t m f $ 8 A F ~ 4.;.G / b > = V t 8 y ) j 9 y f 2 6 y F F ' >.x / F 7 * b M > = W W * ",
"y ' ] t & x ] t & 8 y t & 8 F ` $ 8 A D O.C Y F.U u F ( O.6.l % t > = A ] 5 = A A ' ^ m F.p.M S ` O.;.( : 8 8 & t ' x % r ] ( y ",
"y ' ' y t ` ' y t t y y r y y u r ) ;.] D = s t.F.e.l # # w y t y t t y A y S ;.;.~ 8 $ +.S.B.( ; # 2 M t t y t y ' _ t y ' ' y ",
"t S ) ^ A ] x = t y y y y y y y y D ) F y 8 V >.B g j l 9 = * = r i i y y y u F ~ A q w ;.H d a l w 6 % = 8 y t = J ' A ^ ) D t ",
"F u T e.w / J > t D P D 8 8 7 8 y y q 8 t p A k : % 4 x F 9 % > S e 8 7 8 r p t 8 q y y C 4 % > l J b * = y F t = J / w c.P p F ",
"<.D R m.# l / t y ) ;./ # . . @ 8 y > & y y > @ t y 6 # O.Z q y ( 1 . O O 6 r 8 % 9 u q @ 7 y r + z ] t r ) ` y t _ l - n.R S <.",
"1.0 g o.# 9 q % t 2 4 e +   O O + @ * y ] 0 O + t y 7 # O.g + $ y = O O O + @ % 8 ` l @ O 8 y r + x x + @ 5 u r & q 9 # o.s 5 <.",
"D $ $ Z l 4 * 8 y % O = 8 @   O 6 7 M ..<.5 @ r y 6 1 l 5 #   O * 7 =   . = 6 q ` 9.x + 6 t 9 > C h ; O O @ 7 y 8 * 4 z Z = = F ",
"F : % A c.n 9 F y =   + 6 4 5 g F A A G / 3 @ 7 6 = c ;.#   O O O = 5 5 5 C F I C / b + 7 8 = 2 ;.g   O O O * u F 4 v e.A % 2 F ",
"0.5 = M G.R V / u = O o @ J <.;...V > @ r = X + + 9 ^ / # o + O O + 0 9.;.;.J 8 + 9 8   O + > D ..4   O O O * y ( S R F.M % s >.",
"<.F 6 ; o.P 8 $ t =   + 9 ` ] y $ # . @ t $   @ 9 ^ ' y @   O O X > F ;.D 2 @ @ X 8 8 + O > S ..S =   + X   = t $ 8 ) o.$ > F <.",
"F 8 4 l F A q 8 ^ M = @ y 0 3 %     @ 8 ^ ^ k q ` 0.J % + * 7 7 + 8 e 4 $ +   X > Z / l w Z ;.;.2 X % 8 7 % 3 ) 9 q A D C 4 4 F ",
"y 6 n x.A D D u >.C * + r &   O O @ 9 ) ` / k q ` <.z . o 8 y 7 + 8 4     X + > D ' / l w C 6.;.#   = y 9 @ 5 ;.u D S A c.n 6 i ",
"t r R F.I J ^ D O.5 + & y 2 O O O 9 F ] e *   + q / l O + 8 7 O + q q @ O   = S ..D 6 O X > D / #   > 8 + O 0 %.D ^ ^ A F.R r r ",
"@ 7 F 7.A = g %.S % & y ] D > O O l ' y & O O O + t 9 @ 8 = + + q ^ ` 9 +   2 ..S > O O + + 2 t @ > 8 + O > y V O.g = A 8.P 8 + ",
"  b 4.<.] b t S = . 3 ` ) A S x x X.' r + O O + > S C 6 = @   @ ^ ` D y x x ( <.A * . O o * e ^ w = %   O b C = V t e ] <.4.b . ",
"= J 9.' x w m Y s $ j ;.9 6 0 J ' >.' r +   + > Z 8.w.D > + O 4 ;.V 6 9 l ` 4.;.A *   O % M &.u.` 9 + O $ ^ / s Y m w x ' 9.x * ",
"A ( ^ 9 &   d F.q.F ) ` $ . o @ 9 ' 4.e & @ 2 D ..B.B./ A > 2 S ] 0 X   + > F ;.S > @ $ e ` e.M.X.S 8 = e ' >.q.F.f . % 9 ^ ' A ",
"4.F w @ 8 * = U ;.>._ u t $   O + G 3.] y J X.%.D 7 - - t ^ ;.%.D t > O O O g 3.;.V V ;.;.~ q - # 8 D X.;.F ) 6.S $ = 8 % 9 F 4.",
"F ` V 8 i 8 = 7 ;.z 3 = y Z 5 + 6 5 5 g _ A.c.S = +   O * 1 5 1 = 8 S k + = 8 1 5 Z e.V.^ 9 @     @ 3 5 5 = b ;.7 = 8 t 8 S ` ) ",
"7 #.#.q F | v # k ;   X 6 F C = 7 %   + ) v.g.r + O O O O o       * V ^ 2 7 =   . k x.C.M % . o O O o   o   ; k + v R F 9 #.@.6 ",
"@ Q W $ K D.E + O + @ + O 7 A y @ o o @ 8 / ' m * O O O O + + @ % O = y A = O O O > D %.U > X X O O O # + + + O # E D./ % W W @ ",
"r ( ' r $ f A 8 + > y 8 + 8 F ( #   O + @ 8 i.N.M & o o o 2 t r r % * A ' 5   O O + > S N.R > o O   $ r t t 2 + 8 I w $ 8 $.( r ",
"y ' ' t 8 A F y 7 y y y 8 t e < + o O O . + v b.N.#.0 O . 8 p y t w q y 5 # O O o o O 3 e.C.*.l @   = y i y r 8 i ) C 7 i ' ' y ",
"y F ` F u ] / 8 y q 8 y i r =   o & # O $ * j >.Q H l 5 = > 4 8 t p y 6 O   @ $ + % % 2 X.=.E l g > = 7 8 r y y 7 / ] u S _ P y ",
"A y P +.y ` x % r > > u r % . X + q 8 + r t D / - + 4 ( D > X * y y > O O O > r @ 6 y A / 5 + # / F 9 @ + r p t # Z / y 7.P y M ",
";.S R n.: l ' r y r C ( $ O o @ q y 6 @ r y 8 $ r r > , ( Z q y ] 0 O O O 2 t r @ 7 y y $ 2 t q $ x ` r y ^ / y r ' l : m.i.S 4.",
"3.j n -.# 5 M > r 6 w S @   O O * * = q ) 0 @ + t A 7 @ X.b * 2 C 2     O = * = 6 Z C * X 7 u r X x / = = b F t = M w # -.v b y.",
"` 3 2 ) g 4 = = t * @ 6 = +   O = % 4 ) 1.1 O > t 8 3 0 l ;   + 6 > %   X @ * 2 Z 6.z X * r t 8 5 k 0   O % q t = = 4 0 ^ 2 ; ' ",
"A * % A 7.g > D y =   @ 8 2 # $ A t D o.4.1 % t r = g O.#   O O + 7 8 # # q S y ( ;.l @ 9 r 6 $ O.0   O o + * y A > 0 7.A % $ M ",
";.1 % I F.Y V O.A * o O @ k X.X.;.D 8 $ y = O @ @ > F O.# o O O O + 1 O...;./ r $ w 9 X @ + = e ;.5   . + . * A [ V Y G.A % 3 ;.",
"<.C 6 2 w.R r 4 y * o + 2 ` 6.F g 2 @ O q *   O > D ] C @   o o + % V <.^ e < * O 2 7     % M ' ) , . . O . = y 0 w T c.2 > C <.",
"' b 2 0 ` D 7 = V 9 # + t C b 2 O . O 2 D k 3 2 D 4./ 6 + % = $ + 8 V C 8 @   + * M C 5 : e ' ;.9 @ + = $ + 2 V > 8 D ^ 5 2 M ( ",
"y = s 7.A y u A ;.F 6 @ t = O O O + = D O.;.F e ] 1.l +   8 y q + 7 8 O o O o & e ` ;.` e ^ <.O.#   = t r % 5 ;.u y y I 7.g = y ",
"i q R F.D ^ ^ A ;.g   + r = O O O 6 D ..D 2 @ % y %.x O O 8 q + + 8 8 O O O & y ] F q # + 9 ) ( &   = t % . 5 4.D / ` A F.R r y ",
"= 8 } x.A 9 k ` P = @ 9 / M *     b ' C > +   o @ b w O 7 > @ O 2 F Z 6 O   3 ` ) 9 @   . % 9 A + $ 8 % . = e ~ ) k 5 A x.T 8 = ",
". 6 ~ 4.A % 3 4.A % $ P ' D e 5 s / ] r + o O O & b M = 7 %   @ S _ P y 0 1 z 6.u %   + O @ 5 V 2 6 = O O 7 t A 4.< % A 4.F 6 . ",
"+ 8 T 6.M = g 4.D = 0 ;.y q V ..;.<.( r @   X $ y %.X.y & O O $ O.F r e / ;.>.;.A $ o O + q ) 8.S > + O + r A D ] 0 > A 8.) 7 @ ",
"t r R F.A J ^ D %.C D ..$ + @ ; y %.' r @ X * y ] C.S.] e % % y 4.0 + @ # w ) 6.A *   + q / v.Z.7.C > + 8 / ;.4.S ^ P S D.R t t ",
"y 6 n w.I D D A >.;.' D 9 +   O $ J 0./ 9 0 ^ ( ) n d 0 y C / ] F e % o . + j <.] e q x ` ` L d s t S J ` ) ' ;.A D S A c.n 6 i ",
"F w 4 l D u 8 8 ^ / b 8 y w ; O * g x x P w.t.^ 9 +   O > C x l 8 t e < + @ 5 G z F o.v.O.M *   . = w x J w e ) 9 q M D C 3 8 F ",
"<.D 6 ; +.P 9 = q *   + 9 ` l & q *   # / S.l.t @ . O O O o O O + > D ( $ 6 6 O O l v.F.I % . O O O O O O X * 8 $ 8 ) +.$ > F 1.",
"<.0 * m F.R S / $ O O O + q A q % O o @ e &.$.t + . + O O O O O O O > p r = + O X 9 _ 8.A = O O O + O O O O O $ / V R F.M * s <.",
"D ; % D c.8.' V + * 7 6 + 6 F ^ #   O O % e i.d.9 @ . O + = 8 8 8 @ % A ` 5 . O X + 9 ) d.N * O O O % 4 7 % O @ C _ 8.c.A & : F ",
"D : = Z l z A r 2 q u y > q V n #   O O . & L S.p.n ;   O 7 p y y 6 2 y C ; . O O . @ q B.k.L < +   = u i $ + = t V z l D : = F ",
"<.5 g +.; # 2 y y t t y y y > X O @ + O @ + 0 <.V.-.l # + 8 t t y y y 9 @ O + + O + + $ O.B.h./ , + = r t & = y y > # ; +.g 5 :.",
"<.Z Y G.+.O.P y y = > y y > + X o 7 6 + 8 r Z ;.3 # g / e = + & r u 8 + O O = 8 + 6 r y 4.h # ; / V 6 @ + O * y i ) O.+.J.R S <.",
"F A P x.` F ) ` u 8 > * * +   + 6 y 8 + t y e 4 7 7 2 g ^ M 7 w / w @ X O = r y + 8 y y 0 2 6 7 0 J k o X = r u ^ ` F ` c.P A F ",
"y A ) / y 8 b ` F A q = % 3 ; + 7 8 6 > S e $ O r I 6 # X.C 7 q ` < .   O = 7 7 $ b A 7 . 6 y t X x ^ * = r A F ' w 8 y ^ ) A y ",
"y ' ` y y = = M 7.~ r t u ;.J # @ + = F ;.4   & r y 7 ; / <   + 8 * X @ # @ O % t ( x @ % 9 p t $ x O.u t t F 8.D * % y y ' _ y ",
"y ] ' y y = & I F.| 6 = ( <.>./ y r V ;.1.< & t y = 5 / , O O O + + & e / < & q y ' / e / A y y ( >.<./ * 8 | G.I % * y y ] ' y ",
"* W W = t 8 8 i R $./ x <./ F F u 6 : g S 2 + = * g  .C.x ;   + k b 6 > S t 8 A _ b w y 0 , 6 y F F ` <.K / $.R I 8 8 t > W W * ",
"* W W 2 D | U y 6 b z J ' A y y y 6 + + b 2   o & C s.g.+.l , > l c 2 s Y T D y ^ 5 8 V + @ 6 y y r S _ J z j > t T R D > W W * ",
"A ' ^ y / B.j.t = - - $ r i y y y y 7 $ O.j + & y S i t y ` ( M : + g 8.F.w.^ A A M ` O.$ 7 y y y y y t $ - # $ t j.C./ e ) ' A ",
";.) 9 + & c I M / h.h.( M y y y y = * M ;.;.J y ( >.` y y y ~ +.n.-.^ A S 2 0 7.F.x.6.4.y = = i y y y y / B.m./ y A e # @ 9 ~ ;.",
"F ` S 8 6 = @ $ 1 L L g / ' &.k.$.t b ] <.y.9.' F F D A _ ' Z g R n 2 % % > 2 s R T ] <.$.e e $.l.s.] / g L L < = % = 6 6 C ` ~ ",
"7 ^ 4.F F j 3 = 1 V e = ^ ] @.E ( ) ) / x l J _ F p 8 9 ^ ] V > V c : $ 5 C M = r 8 w G / ) ) _ W @.' ` = e V 3 = 3 j F F 6.^ 6 ",
"+ l 3.<.<.<.` M 4.<._ i y y 7 @ r ' ' t @   = A 6.~ 6 + r y y A ;.<.` A 4.<.' y y $ O + t ' ' r + 6 y y y ` q.4.A _ 3.<.<.3.z O "
};
